<svg width="448" height="512" viewBox="0 0 448 512" fill="none" xmlns="http://www.w3.org/2000/svg">
<rect width="448" height="512" fill="white"/>
<path d="M94.3494 21.1562L71.1874 60.625C67.6095 66.7188 65.7265 73.75 65.7265 80.875V83.5C65.7265 104.219 82.5801 121 103.388 121C124.196 121 141.05 104.219 141.05 83.5V80.875C141.05 73.75 139.167 66.8125 135.589 60.625L112.427 21.1562C110.544 17.9688 107.154 16 103.388 16C99.622 16 96.2325 17.9688 94.3494 21.1562ZM214.867 21.1562L191.705 60.625C188.127 66.7188 186.244 73.75 186.244 80.875V83.5C186.244 104.219 203.098 121 223.906 121C244.714 121 261.568 104.219 261.568 83.5V80.875C261.568 73.75 259.685 66.8125 256.107 60.625L232.945 21.1562C231.062 17.9688 227.672 16 223.906 16C220.14 16 216.75 17.9688 214.867 21.1562ZM312.223 60.625C308.645 66.7188 306.762 73.75 306.762 80.875V83.5C306.762 104.219 323.615 121 344.423 121C365.232 121 382.085 104.219 382.085 83.5V80.875C382.085 73.75 380.202 66.8125 376.624 60.625L353.462 21.1562C351.579 17.9688 348.19 16 344.423 16C340.657 16 337.268 17.9688 335.385 21.1562L312.223 60.625ZM133.518 181C133.518 164.406 120.054 151 103.388 151C86.7229 151 73.2588 164.406 73.2588 181V226C40.0223 226 13 252.906 13 286V352.562C20.8148 357.438 30.0419 361 40.1165 361C52.8273 361 65.7265 355.281 76.2718 348.438C81.3561 345.156 85.593 341.781 88.5118 339.344C89.9241 338.125 91.054 337.094 91.8072 336.438C92.1838 336.062 92.4663 335.875 92.5605 335.688L92.6546 335.594C95.5734 332.594 99.622 331 103.859 331.094C108.096 331.188 111.956 333.062 114.781 336.156L114.875 336.25C114.969 336.344 115.252 336.625 115.534 336.906C116.193 337.562 117.135 338.5 118.453 339.719C121.089 342.156 124.855 345.438 129.563 348.625C139.167 355.281 151.219 360.906 163.741 360.906C176.264 360.906 188.315 355.281 197.919 348.625C202.627 345.344 206.393 342.156 209.029 339.719C210.348 338.5 211.289 337.562 211.948 336.906C212.231 336.625 212.513 336.344 212.607 336.25L212.701 336.156C215.526 332.875 219.669 331.094 224 331.094C228.331 331.094 232.474 332.969 235.299 336.156L235.393 336.25C235.487 336.344 235.769 336.625 236.052 336.906C236.711 337.562 237.652 338.5 238.971 339.719C241.607 342.156 245.373 345.438 250.081 348.625C259.685 355.281 271.736 360.906 284.259 360.906C296.781 360.906 308.833 355.281 318.437 348.625C323.145 345.344 326.911 342.156 329.547 339.719C330.865 338.5 331.807 337.562 332.466 336.906C332.748 336.625 333.031 336.344 333.125 336.25L333.219 336.156C335.95 332.969 339.904 331.188 344.141 331.094C348.378 331 352.332 332.594 355.345 335.594L355.44 335.688C355.628 335.875 355.816 336.062 356.193 336.438C356.946 337.094 357.982 338.125 359.488 339.344C362.407 341.781 366.55 345.156 371.728 348.438C382.274 355.281 395.173 361 407.884 361C417.958 361 427.185 357.344 435 352.562V286C435 252.906 407.978 226 374.741 226V181C374.741 164.406 361.277 151 344.612 151C327.946 151 314.482 164.406 314.482 181V226H254.224V181C254.224 164.406 240.759 151 224.094 151C207.429 151 193.965 164.406 193.965 181V226H133.706V181H133.518ZM434.812 385.938C426.809 389.031 417.676 391 407.695 391C386.51 391 367.774 381.719 355.157 373.562C351.297 371.031 347.813 368.5 344.894 366.25C342.258 368.5 339.151 370.938 335.667 373.281C323.521 381.625 305.444 391 284.165 391C262.886 391 244.808 381.625 232.756 373.281C229.461 371.031 226.448 368.688 223.906 366.531C221.364 368.688 218.351 370.938 215.055 373.281C203.004 381.625 184.926 391 163.647 391C142.368 391 124.29 381.625 112.239 373.281C108.755 370.844 105.648 368.406 103.012 366.25C100.093 368.5 96.6091 371.031 92.7488 373.562C80.0379 381.719 61.3012 391 40.1165 391C30.1361 391 21.0031 388.938 13 385.938V466C13 482.594 26.4641 496 43.1294 496H404.682C421.348 496 434.812 482.594 434.812 466V385.938Z" fill="url(#paint0_linear_2_2)"/>
<defs>
<linearGradient id="paint0_linear_2_2" x1="224" y1="16" x2="224" y2="496" gradientUnits="userSpaceOnUse">
<stop stop-color="#FF4E4E"/>
<stop offset="0.0001" stop-color="#FF9100"/>
<stop offset="0.21" stop-color="#FD5B60"/>
<stop offset="0.575" stop-color="#FD7076"/>
<stop offset="1" stop-color="#8D65B5"/>
</linearGradient>
</defs>
</svg>
